{
  "accessors": [
    {
      "bufferView": 2,
      "componentType": 5126,
      "count": 676,
      "max": [
        0.9809499979019165,
        0.8352299928665161,
        1.8182899951934814
      ],
      "min": [
        -0.9809499979019165,
        -0.8352299928665161,
        -1.4481099843978882
      ],
      "type": "VEC3"
    },
    {
      "bufferView": 2,
      "byteOffset": 8112,
      "componentType": 5126,
      "count": 676,
      "max": [
        0.9171869158744812,
        0.9336416721343994,
        0.7490566968917847
      ],
      "min": [
        -0.9171867370605469,
        -0.9336416721343994,
        -0.7087429165840149
      ],
      "type": "VEC3"
    },
    {
      "bufferView": 3,
      "componentType": 5126,
      "count": 676,
      "max": [
        0.9999516606330872,
        0.9998853206634521,
        0.9219907522201538,
        1.0
      ],
      "min": [
        -0.9999516606330872,
        -0.9999988675117493,
        -0.931654155254364,
        1.0
      ],
      "type": "VEC4"
    },
    {
      "bufferView": 1,
      "componentType": 5126,
      "count": 676,
      "max": [
        0.9917600154876709,
        0.9916399717330933
      ],
      "min": [
        0.00824000034481287,
        0.0083600003272295
      ],
      "type": "VEC2"
    },
    {
      "bufferView": 0,
      "componentType": 5125,
      "count": 1854,
      "type": "SCALAR"
    },
    {
      "bufferView": 2,
      "byteOffset": 16224,
      "componentType": 5126,
      "count": 20,
      "max": [
        0.8315399885177612,
        0.7022600173950195,
        -1.4167399406433105
      ],
      "min": [
        -0.8315399885177612,
        -0.7022600173950195,
        -1.417389988899231
      ],
      "type": "VEC3"
    },
    {
      "bufferView": 2,
      "byteOffset": 16464,
      "componentType": 5126,
      "count": 20,
      "max": [
        0.7156446576118469,
        0.7309415340423584,
        0.7030690312385559
      ],
      "min": [
        -0.7156447768211365,
        -0.7309415340423584,
        0.672893226146698
      ],
      "type": "VEC3"
    },
    {
      "bufferView": 1,
      "byteOffset": 5408,
      "componentType": 5126,
      "count": 20,
      "max": [
        0.19787000119686127,
        0.8575599789619446
      ],
      "min": [
        0.00824000034481287,
        0.6257200241088867
      ],
      "type": "VEC2"
    },
    {
      "bufferView": 0,
      "byteOffset": 7416,
      "componentType": 5125,
      "count": 54,
      "type": "SCALAR"
    },
    {
      "bufferView": 2,
      "byteOffset": 16704,
      "componentType": 5126,
      "count": 372,
      "max": [
        1.6419899463653564,
        1.6419899463653564,
        1.5894399881362915
      ],
      "min": [
        -1.6419899463653564,
        -1.6419899463653564,
        -0.858709990978241
      ],
      "type": "VEC3"
    },
    {
      "bufferView": 2,
      "byteOffset": 21168,
      "componentType": 5126,
      "count": 372,
      "max": [
        0.9421843886375427,
        0.9421843886375427,
        1.0
      ],
      "min": [
        -0.9421843886375427,
        -0.9421843886375427,
        -0.9765515327453613
      ],
      "type": "VEC3"
    },
    {
      "bufferView": 1,
      "byteOffset": 5568,
      "componentType": 5126,
      "count": 372,
      "max": [
        0.9930599927902222,
        0.9927399754524231
      ],
      "min": [
        0.006940000224858522,
        0.007259999867528677
      ],
      "type": "VEC2"
    },
    {
      "bufferView": 0,
      "byteOffset": 7632,
      "componentType": 5125,
      "count": 1188,
      "type": "SCALAR"
    }
  ],
  "asset": {
    "extras": {
      "author": "brendanp1237 (https://sketchfab.com/brendanp1237)",
      "license": "CC-BY-4.0 (http://creativecommons.org/licenses/by/4.0/)",
      "source": "https://sketchfab.com/3d-models/liquor-bottle-f15a5283eeb841ebba69f4223f0d562a",
      "title": "Liquor Bottle"
    },
    "generator": "Sketchfab-12.65.0",
    "version": "2.0"
  },
  "bufferViews": [
    {
      "buffer": 0,
      "byteLength": 12384,
      "name": "floatBufferViews",
      "target": 34963
    },
    {
      "buffer": 0,
      "byteLength": 8544,
      "byteOffset": 12384,
      "byteStride": 8,
      "name": "floatBufferViews",
      "target": 34962
    },
    {
      "buffer": 0,
      "byteLength": 25632,
      "byteOffset": 20928,
      "byteStride": 12,
      "name": "floatBufferViews",
      "target": 34962
    },
    {
      "buffer": 0,
      "byteLength": 10816,
      "byteOffset": 46560,
      "byteStride": 16,
      "name": "floatBufferViews",
      "target": 34962
    }
  ],
  "buffers": [
    {
      "byteLength": 57376,
      "uri": "scene.bin"
    }
  ],
  "images": [
    {
      "uri": "textures/Material.001_baseColor.png"
    },
    {
      "uri": "textures/Material.001_metallicRoughness.png"
    },
    {
      "uri": "textures/Material.001_normal.png"
    },
    {
      "uri": "textures/Material.002_baseColor.png"
    }
  ],
  "materials": [
    {
      "doubleSided": true,
      "name": "Root",
      "pbrMetallicRoughness": {
        "baseColorFactor": [
          0.0,
          0.0,
          0.0,
          1.0
        ],
        "metallicFactor": 0.0,
        "roughnessFactor": 0.6
      }
    },
    {
      "alphaMode": "BLEND",
      "doubleSided": true,
      "name": "Material.001",
      "normalTexture": {
        "index": 2
      },
      "pbrMetallicRoughness": {
        "baseColorTexture": {
          "index": 0
        },
        "metallicRoughnessTexture": {
          "index": 1
        }
      }
    },
    {
      "doubleSided": true,
      "name": "Material.002",
      "pbrMetallicRoughness": {
        "baseColorTexture": {
          "index": 3
        },
        "metallicFactor": 0.0,
        "roughnessFactor": 0.6
      }
    }
  ],
  "meshes": [
    {
      "name": "Cylinder.005_0",
      "primitives": [
        {
          "attributes": {
            "NORMAL": 1,
            "POSITION": 0,
            "TANGENT": 2,
            "TEXCOORD_0": 3
          },
          "indices": 4,
          "material": 1,
          "mode": 4
        }
      ]
    },
    {
      "name": "Cylinder.005_1",
      "primitives": [
        {
          "attributes": {
            "NORMAL": 6,
            "POSITION": 5,
            "TEXCOORD_0": 7
          },
          "indices": 8,
          "material": 2,
          "mode": 4
        }
      ]
    },
    {
      "name": "Cylinder.006_0",
      "primitives": [
        {
          "attributes": {
            "NORMAL": 10,
            "POSITION": 9,
            "TEXCOORD_0": 11
          },
          "indices": 12,
          "material": 0,
          "mode": 4
        }
      ]
    }
  ],
  "nodes": [
    {
      "children": [
        1
      ],
      "matrix": [
        1.0,
        0.0,
        0.0,
        0.0,
        0.0,
        2.220446049250313e-16,
        -1.0,
        0.0,
        0.0,
        1.0,
        2.220446049250313e-16,
        0.0,
        0.0,
        0.0,
        0.0,
        1.0
      ],
      "name": "Sketchfab_model"
    },
    {
      "children": [
        2,
        4,
        7
      ],
      "name": "Root"
    },
    {
      "children": [
        3
      ],
      "matrix": [
        -0.29086000000000006,
        0.9551700000000001,
        -0.05519000000000001,
        0.0,
        -0.7711,
        -0.19988000000000003,
        0.6045200000000001,
        0.0,
        0.5663900000000001,
        0.21839000000000003,
        0.7946700000000001,
        0.0,
        4.076250000000001,
        1.00545,
        5.903860000000001,
        1.0
      ],
      "name": "Lamp"
    },
    {
      "name": "Lamp"
    },
    {
      "children": [
        5,
        6
      ],
      "matrix": [
        0.94908,
        0.0,
        0.0,
        0.0,
        0.0,
        0.94908,
        0.0,
        0.0,
        0.0,
        0.0,
        0.94908,
        0.0,
        -1.70734,
        0.0,
        -0.3205100000000001,
        1.0
      ],
      "name": "Cylinder.005"
    },
    {
      "mesh": 0,
      "name": "Cylinder.005_0"
    },
    {
      "mesh": 1,
      "name": "Cylinder.005_1"
    },
    {
      "children": [
        8
      ],
      "matrix": [
        0.23499000000000003,
        0.0,
        0.0,
        0.0,
        0.0,
        0.23499000000000003,
        0.0,
        0.0,
        0.0,
        0.0,
        0.23499000000000003,
        0.0,
        -1.7064500000000002,
        0.0,
        1.35256,
        1.0
      ],
      "name": "Cylinder.006"
    },
    {
      "mesh": 2,
      "name": "Cylinder.006_0"
    }
  ],
  "samplers": [
    {
      "magFilter": 9729,
      "minFilter": 9987,
      "wrapS": 10497,
      "wrapT": 10497
    }
  ],
  "scene": 0,
  "scenes": [
    {
      "name": "Sketchfab_Scene",
      "nodes": [
        0
      ]
    }
  ],
  "textures": [
    {
      "sampler": 0,
      "source": 0
    },
    {
      "sampler": 0,
      "source": 1
    },
    {
      "sampler": 0,
      "source": 2
    },
    {
      "sampler": 0,
      "source": 3
    }
  ]
}
